<svg width="16" height="16" viewBox="0 0 16 16" fill="none" xmlns="http://www.w3.org/2000/svg">
<path d="M13.0001 8C13.0001 8.19891 12.921 8.38968 12.7804 8.53033C12.6397 8.67098 12.449 8.75 12.2501 8.75L4.46305 8.75L7.75005 11.691C7.82412 11.7565 7.88451 11.836 7.92775 11.9249C7.97099 12.0138 7.99623 12.1103 8.00201 12.209C8.0078 12.3077 7.99402 12.4066 7.96146 12.4999C7.9289 12.5932 7.87822 12.6792 7.81231 12.7529C7.7464 12.8266 7.66658 12.8865 7.57743 12.9292C7.48828 12.972 7.39156 12.9967 7.29284 13.0019C7.19412 13.0071 7.09535 12.9927 7.00219 12.9596C6.90904 12.9265 6.82335 12.8753 6.75005 12.809L2.00005 8.559C1.92124 8.48865 1.85818 8.40244 1.81501 8.30602C1.77183 8.2096 1.74951 8.10514 1.74951 7.9995C1.74951 7.89385 1.77183 7.7894 1.81501 7.69298C1.85818 7.59656 1.92124 7.51035 2.00005 7.44L6.75005 3.19C6.82335 3.12367 6.90904 3.07248 7.00219 3.03938C7.09535 3.00628 7.19412 2.99193 7.29284 2.99714C7.39157 3.00235 7.48828 3.02703 7.57743 3.06975C7.66658 3.11248 7.7464 3.1724 7.81231 3.24609C7.87822 3.31977 7.92891 3.40576 7.96146 3.4991C7.99402 3.59244 8.0078 3.6913 8.00202 3.78999C7.99623 3.88868 7.97099 3.98525 7.92775 4.07415C7.88451 4.16305 7.82412 4.24252 7.75005 4.308L4.46305 7.25L12.2501 7.25C12.449 7.25 12.6397 7.32902 12.7804 7.46967C12.921 7.61032 13.0001 7.80109 13.0001 8Z" fill="#7C8BA2"/>
</svg>
