<svg width="70" height="20" viewBox="0 0 70 20" fill="none" xmlns="http://www.w3.org/2000/svg">
<path d="M13.9999 6C15.0435 5.99998 16.0457 6.40779 16.7928 7.1364C17.5399 7.86502 17.9727 8.85674 17.9988 9.89997C18.0249 10.9432 17.6422 11.9553 16.9325 12.7204C16.2228 13.4854 15.2422 13.9428 14.1999 13.995L13.9999 14H11.9999C11.8099 13.9999 11.627 13.9278 11.4882 13.798C11.3493 13.6683 11.2649 13.4907 11.2519 13.3011C11.239 13.1115 11.2985 12.9241 11.4184 12.7767C11.5383 12.6293 11.7097 12.5329 11.8979 12.507L11.9999 12.5H13.9999C14.6498 12.5016 15.2748 12.25 15.7424 11.7987C16.2099 11.3473 16.4834 10.7316 16.5047 10.082C16.526 9.43251 16.2936 8.80019 15.8566 8.31913C15.4196 7.83806 14.8125 7.54605 14.1639 7.505L13.9999 7.5H11.9999C11.8099 7.49994 11.627 7.42776 11.4882 7.29803C11.3493 7.1683 11.2649 6.9907 11.2519 6.80112C11.239 6.61154 11.2985 6.42411 11.4184 6.2767C11.5383 6.12929 11.7097 6.0329 11.8979 6.007L11.9999 6H13.9999ZM7.99994 6C8.18997 6.00006 8.37288 6.07224 8.51173 6.20197C8.65058 6.3317 8.73502 6.5093 8.74797 6.69888C8.76092 6.88846 8.70143 7.07589 8.58151 7.2233C8.46159 7.37071 8.29019 7.4671 8.10194 7.493L7.99994 7.5H5.99994C5.35006 7.49842 4.72509 7.74997 4.25753 8.20134C3.78996 8.65271 3.51653 9.26842 3.49521 9.91795C3.47388 10.5675 3.70633 11.1998 4.14328 11.6809C4.58024 12.1619 5.18735 12.4539 5.83594 12.495L5.99994 12.5H7.99994C8.18997 12.5001 8.37288 12.5722 8.51173 12.702C8.65058 12.8317 8.73502 13.0093 8.74797 13.1989C8.76092 13.3885 8.70143 13.5759 8.58151 13.7233C8.46159 13.8707 8.29019 13.9671 8.10194 13.993L7.99994 14H5.99994C4.95639 14 3.95414 13.5922 3.20706 12.8636C2.45999 12.135 2.02723 11.1433 2.00113 10.1C1.97503 9.0568 2.35766 8.04468 3.06738 7.27963C3.77709 6.51457 4.75769 6.05716 5.79994 6.005L5.99994 6H7.99994ZM6.24994 9.25H13.7499C13.94 9.25006 14.1229 9.32224 14.2617 9.45197C14.4006 9.5817 14.485 9.7593 14.498 9.94888C14.5109 10.1385 14.4514 10.3259 14.3315 10.4733C14.2116 10.6207 14.0402 10.7171 13.8519 10.743L13.7499 10.75H6.24994C6.05992 10.7499 5.877 10.6778 5.73815 10.548C5.5993 10.4183 5.51487 10.2407 5.50192 10.0511C5.48896 9.86154 5.54846 9.67411 5.66837 9.5267C5.78829 9.37929 5.95969 9.2829 6.14794 9.257L6.24994 9.25H13.7499H6.24994Z" fill="#B3BCD4"/>
<path d="M26.026 14.165C25.2377 14.165 24.5685 13.9908 24.0185 13.6425C23.4685 13.2942 23.0487 12.8102 22.759 12.1905C22.473 11.5708 22.33 10.854 22.33 10.04C22.33 9.226 22.473 8.50917 22.759 7.8895C23.0487 7.26983 23.4685 6.78583 24.0185 6.4375C24.5685 6.08917 25.2377 5.915 26.026 5.915C26.9427 5.915 27.6962 6.14783 28.2865 6.6135C28.8805 7.07917 29.2893 7.70617 29.513 8.4945L28.5175 8.7585C28.3562 8.16817 28.0683 7.7025 27.654 7.3615C27.2397 7.0205 26.697 6.85 26.026 6.85C25.4357 6.85 24.9443 6.98383 24.552 7.2515C24.1597 7.51917 23.8645 7.89317 23.6665 8.3735C23.4685 8.85017 23.3677 9.40567 23.364 10.04C23.3603 10.6707 23.4575 11.2262 23.6555 11.7065C23.8535 12.1832 24.1505 12.5572 24.5465 12.8285C24.9425 13.0962 25.4357 13.23 26.026 13.23C26.697 13.23 27.2397 13.0595 27.654 12.7185C28.0683 12.3738 28.3562 11.9082 28.5175 11.3215L29.513 11.5855C29.2893 12.3702 28.8805 12.9972 28.2865 13.4665C27.6962 13.9322 26.9427 14.165 26.026 14.165ZM33.2492 14.165C32.6589 14.165 32.1492 14.0312 31.7202 13.7635C31.2949 13.4958 30.9667 13.1255 30.7357 12.6525C30.5047 12.1795 30.3892 11.6368 30.3892 11.0245C30.3892 10.4012 30.5066 9.85483 30.7412 9.3855C30.9759 8.91617 31.3077 8.55133 31.7367 8.291C32.1657 8.027 32.6699 7.895 33.2492 7.895C33.8432 7.895 34.3547 8.02883 34.7837 8.2965C35.2127 8.5605 35.5409 8.929 35.7682 9.402C35.9992 9.87133 36.1147 10.4122 36.1147 11.0245C36.1147 11.6442 35.9992 12.1905 35.7682 12.6635C35.5372 13.1328 35.2072 13.5013 34.7782 13.769C34.3492 14.033 33.8396 14.165 33.2492 14.165ZM33.2492 13.2355C33.8652 13.2355 34.3236 13.0302 34.6242 12.6195C34.9249 12.2088 35.0752 11.6772 35.0752 11.0245C35.0752 10.3535 34.9231 9.82 34.6187 9.424C34.3144 9.02433 33.8579 8.8245 33.2492 8.8245C32.8349 8.8245 32.4939 8.918 32.2262 9.105C31.9586 9.292 31.7587 9.5505 31.6267 9.8805C31.4947 10.2105 31.4287 10.5918 31.4287 11.0245C31.4287 11.6918 31.5827 12.2272 31.8907 12.6305C32.1987 13.0338 32.6516 13.2355 33.2492 13.2355ZM40.0537 14.165C39.4963 14.165 39.027 14.0275 38.6457 13.7525C38.2643 13.4738 37.9747 13.098 37.7767 12.625C37.5823 12.1483 37.4852 11.6148 37.4852 11.0245C37.4852 10.4268 37.5823 9.8915 37.7767 9.4185C37.9747 8.9455 38.2643 8.57333 38.6457 8.302C39.0307 8.03067 39.5018 7.895 40.0592 7.895C40.6092 7.895 41.0822 8.0325 41.4782 8.3075C41.8778 8.57883 42.184 8.951 42.3967 9.424C42.6093 9.897 42.7157 10.4305 42.7157 11.0245C42.7157 11.6185 42.6093 12.152 42.3967 12.625C42.184 13.098 41.8778 13.4738 41.4782 13.7525C41.0822 14.0275 40.6073 14.165 40.0537 14.165ZM37.3202 16.64V8.06H38.1947V12.4325H38.3047V16.64H37.3202ZM39.9327 13.2685C40.325 13.2685 40.6495 13.1695 40.9062 12.9715C41.1628 12.7735 41.3553 12.5058 41.4837 12.1685C41.612 11.8275 41.6762 11.4462 41.6762 11.0245C41.6762 10.6065 41.612 10.2288 41.4837 9.8915C41.359 9.55417 41.1647 9.2865 40.9007 9.0885C40.6403 8.8905 40.3085 8.7915 39.9052 8.7915C39.5202 8.7915 39.2012 8.88683 38.9482 9.0775C38.6952 9.2645 38.5063 9.52667 38.3817 9.864C38.257 10.1977 38.1947 10.5845 38.1947 11.0245C38.1947 11.4572 38.2552 11.844 38.3762 12.185C38.5008 12.5223 38.6915 12.7882 38.9482 12.9825C39.2048 13.1732 39.533 13.2685 39.9327 13.2685ZM44.5315 16.64L45.681 13.516L45.6975 14.44L43.1015 8.06H44.13L46.165 13.1915H45.813L47.7215 8.06H48.717L45.483 16.64H44.5315ZM51.9376 14V5.915H52.9166V14H51.9376ZM54.6769 7.0095V5.9975H55.6559V7.0095H54.6769ZM54.6769 14V8.06H55.6559V14H54.6769ZM61.5356 14V11.0245C61.5356 10.7422 61.51 10.4708 61.4586 10.2105C61.411 9.95017 61.3248 9.71733 61.2001 9.512C61.0791 9.303 60.9141 9.138 60.7051 9.017C60.4998 8.896 60.2395 8.8355 59.9241 8.8355C59.6785 8.8355 59.4548 8.87767 59.2531 8.962C59.0551 9.04267 58.8846 9.16733 58.7416 9.336C58.5986 9.50467 58.4868 9.71733 58.4061 9.974C58.3291 10.227 58.2906 10.5258 58.2906 10.8705L57.6471 10.6725C57.6471 10.0968 57.7498 9.60367 57.9551 9.193C58.1641 8.77867 58.4556 8.4615 58.8296 8.2415C59.2073 8.01783 59.651 7.906 60.1606 7.906C60.5456 7.906 60.8738 7.9665 61.1451 8.0875C61.4165 8.2085 61.642 8.36983 61.8216 8.5715C62.0013 8.7695 62.1425 8.99317 62.2451 9.2425C62.3478 9.48817 62.4193 9.73933 62.4596 9.996C62.5036 10.249 62.5256 10.4892 62.5256 10.7165V14H61.5356ZM57.3006 14V8.06H58.1806V9.6495H58.2906V14H57.3006ZM63.95 14L63.9555 6.08H64.9455V10.92L67.437 8.06H68.7075L66.084 11.03L69.0155 14H67.646L64.9455 11.14V14H63.95Z" fill="#7C8BA2"/>
</svg>
